<svg width="36" height="24" viewBox="0 0 36 24" fill="none" xmlns="http://www.w3.org/2000/svg">
<path d="M26.4502 4.22954L27.8182 4.61538V6.46154L26.4502 6.84738C25.8748 7.00972 25.3494 7.34539 24.93 7.81851C24.5107 8.29164 24.2132 8.88443 24.0693 9.53354L23.7273 11.0769H22.0909L21.7489 9.53354C21.605 8.88443 21.3075 8.29164 20.8881 7.81851C20.4688 7.34539 19.9433 7.00972 19.368 6.84738L18 6.46154V4.61538L19.368 4.22954C19.943 4.06691 20.4681 3.73111 20.8872 3.258C21.3062 2.7849 21.6035 2.19226 21.7473 1.54338L22.0909 0H23.7273L24.0693 1.54338C24.2132 2.19249 24.5107 2.78529 24.93 3.25841C25.3494 3.73153 25.8748 4.0672 26.4502 4.22954ZM34.632 13.4603L36 13.8462V15.6923L34.632 16.0782C34.0567 16.2405 33.5312 16.5762 33.1119 17.0493C32.6925 17.5224 32.395 18.1152 32.2511 18.7643L31.9091 20.3077H30.2727L29.9307 18.7643C29.7868 18.1152 29.4893 17.5224 29.07 17.0493C28.6506 16.5762 28.1252 16.2405 27.5498 16.0782L26.1818 15.6923V13.8462L27.5498 13.4603C28.1252 13.298 28.6506 12.9623 29.07 12.4892C29.4893 12.0161 29.7868 11.4233 29.9307 10.7742L30.2727 9.23077H31.9091L32.2511 10.7742C32.395 11.4233 32.6925 12.0161 33.1119 12.4892C33.5312 12.9623 34.0567 13.298 34.632 13.4603Z" fill="#35EFB6"/>
<path d="M8.45018 7.92185L9.81818 8.30769V10.1538L8.45018 10.5397C7.87484 10.702 7.34941 11.0377 6.93005 11.5108C6.51069 11.9839 6.21316 12.5767 6.06927 13.2258L5.72727 14.7692H4.09091L3.74891 13.2258C3.60502 12.5767 3.3075 11.9839 2.88814 11.5108C2.46878 11.0377 1.94334 10.702 1.368 10.5397L0 10.1538V8.30769L1.368 7.92185C1.94304 7.75921 2.46813 7.42342 2.88719 6.95031C3.30624 6.47721 3.60352 5.88457 3.74727 5.23569L4.09091 3.69231H5.72727L6.06927 5.23569C6.21316 5.8848 6.51069 6.47759 6.93005 6.95072C7.34941 7.42384 7.87484 7.75951 8.45018 7.92185ZM16.632 17.1526L18 17.5385V19.3846L16.632 19.7705C16.0567 19.9328 15.5312 20.2685 15.1119 20.7416C14.6925 21.2147 14.395 21.8075 14.2511 22.4566L13.9091 24H12.2727L11.9307 22.4566C11.7868 21.8075 11.4893 21.2147 11.07 20.7416C10.6506 20.2685 10.1252 19.9328 9.54982 19.7705L8.18182 19.3846V17.5385L9.54982 17.1526C10.1252 16.9903 10.6506 16.6546 11.07 16.1815C11.4893 15.7084 11.7868 15.1156 11.9307 14.4665L12.2727 12.9231H13.9091L14.2511 14.4665C14.395 15.1156 14.6925 15.7084 15.1119 16.1815C15.5312 16.6546 16.0567 16.9903 16.632 17.1526Z" fill="#35EFB6"/>
</svg>
