<svg width="24" height="25" viewBox="0 0 24 25" fill="none" xmlns="http://www.w3.org/2000/svg">
<g clip-path="url(#clip0_152_87)">
<path d="M15 18.1449H9.00001V21.1449H7.00001V17.8929C5.67372 17.5497 4.45778 16.8717 3.46871 15.9238C2.47963 14.9759 1.75055 13.7898 1.35133 12.4793C0.952108 11.1688 0.896119 9.77771 1.18873 8.43935C1.48133 7.10099 2.11273 5.8602 3.02243 4.83585C3.93212 3.81151 5.08963 3.03794 6.38405 2.58926C7.67847 2.14058 9.06642 2.03183 10.4149 2.27342C11.7634 2.51502 13.0273 3.09886 14.0854 3.96902C15.1436 4.83918 15.9605 5.96649 16.458 7.24295C17.2101 7.09905 17.9839 7.11377 18.7299 7.28616C19.4759 7.45855 20.1777 7.78481 20.7904 8.24405C21.4031 8.70329 21.9131 9.28541 22.2879 9.95312C22.6626 10.6208 22.8938 11.3594 22.9667 12.1217C23.0395 12.8839 22.9524 13.6529 22.7109 14.3795C22.4694 15.1061 22.0789 15.7743 21.5643 16.3413C21.0497 16.9083 20.4224 17.3616 19.7226 17.6722C19.0227 17.9827 18.2657 18.1438 17.5 18.1449L17 18.1459V21.1459H15V18.1459V18.1449ZM11 20.1449H13V23.1449H11V20.1449Z" fill="#39FFC2"/>
</g>
<defs>
<clipPath id="clip0_152_87">
<rect width="24" height="24" fill="white" transform="translate(0 0.144958)"/>
</clipPath>
</defs>
</svg>
