<svg width="24" height="24" viewBox="0 0 24 24" fill="none" xmlns="http://www.w3.org/2000/svg">
<g clip-path="url(#clip0_290_6)">
<path d="M6.02701 17.43C4.30238 16.7377 2.87243 15.4668 1.9825 13.8354C1.09258 12.204 0.798158 10.3137 1.14976 8.48885C1.50136 6.66404 2.47706 5.01847 3.90945 3.83448C5.34184 2.65049 7.14163 2.00191 9.00001 2C10.6121 1.99991 12.1866 2.48665 13.5173 3.39648C14.8481 4.30631 15.8731 5.59682 16.458 7.099C17.8656 6.96689 19.2699 7.38186 20.3796 8.25779C21.4893 9.13372 22.2191 10.4033 22.4175 11.8031C22.6159 13.2028 22.2677 14.6252 21.4451 15.775C20.6226 16.9248 19.3888 17.7137 18 17.978C17.9951 16.4376 17.3979 14.9581 16.3321 13.846C15.2663 12.7338 13.8136 12.0741 12.2749 12.0035C10.7361 11.933 9.22912 12.457 8.06605 13.4669C6.90297 14.4769 6.17289 15.8955 6.02701 17.429V17.43ZM13 16.267L14.964 15.133L15.964 16.865L14 18L15.964 19.134L14.964 20.866L13 19.732V22H11V19.732L9.03601 20.866L8.03601 19.134L10 18L8.03601 16.866L9.03601 15.134L11 16.268V14H13V16.268V16.267Z" fill="#35EFB6"/>
</g>
<defs>
<clipPath id="clip0_290_6">
<rect width="24" height="24" fill="white"/>
</clipPath>
</defs>
</svg>
