<svg width="64" height="80" viewBox="0 0 64 80" fill="none" xmlns="http://www.w3.org/2000/svg">
<path fill-rule="evenodd" clip-rule="evenodd" d="M46.6404 48.0016L34.8609 35.5453L14.0994 52.2936C13.5866 52.7055 12.9863 53.0129 12.3372 53.1967C11.6882 53.3805 11.0057 53.4366 10.3332 53.3631C9.66074 53.2897 9.01274 53.0884 8.42938 52.7735C7.84676 52.459 7.34016 52.0374 6.94088 51.5354C1.69415 44.9586 -0.719317 36.8246 0.186731 28.7411C1.09298 20.6559 5.25461 13.2118 11.8532 7.8887C18.4518 2.56562 26.9982 -0.241821 35.7945 0.0163475C44.5885 0.274448 52.9903 3.57715 59.3404 9.26325C59.8257 9.69635 60.2102 10.217 60.4694 10.7928C60.7288 11.3691 60.8576 11.9892 60.8459 12.6145C60.8343 13.2399 60.6823 13.857 60.3978 14.4263C60.1132 14.9956 59.7027 15.5036 59.1918 15.9175L38.4303 32.6658L50.2098 45.1221C51.1292 46.0944 52.4203 46.6894 53.7929 46.783C55.1642 46.8766 56.5042 46.4628 57.5235 45.6406C58.5428 44.8183 59.167 43.6475 59.251 42.38C59.3352 41.1111 58.8705 39.8495 57.9511 38.8772C57.0902 37.9669 57.1913 36.5843 58.177 35.7892C59.1626 34.994 60.6596 35.0874 61.5205 35.9978C63.2542 37.8311 64.1423 40.2215 63.9814 42.6476C63.8204 45.0751 62.6216 47.3396 60.6411 48.9373C59.1314 50.1552 57.267 50.9052 55.3027 51.1136V80H46.7425V48.1079C46.7082 48.0727 46.6742 48.0373 46.6404 48.0016ZM4.90075 29.1919C5.68439 22.2005 9.28062 15.7757 14.9708 11.1854C20.661 6.59516 28.0377 4.16807 35.644 4.39131C43.2514 4.61458 50.5339 7.47326 56.0438 12.4079L56.0473 12.411C56.0674 12.4289 56.083 12.4503 56.0933 12.4732C56.1036 12.496 56.1078 12.5186 56.1074 12.5391C56.107 12.5595 56.1021 12.5772 56.0949 12.5916C56.0879 12.6056 56.0785 12.6171 56.0676 12.6261L10.9884 48.9915C10.9772 49.0003 10.9636 49.0074 10.9477 49.0119C10.9313 49.0166 10.9116 49.0187 10.8897 49.0163C10.8676 49.0138 10.8439 49.0069 10.8208 48.9945C10.7977 48.982 10.7769 48.9648 10.7603 48.944L10.7575 48.9404C6.20439 43.2339 4.11699 36.1843 4.90075 29.1919Z" fill="#21E0B2"/>
<path d="M54.5622 40.0857C55.4903 39.2103 55.9543 38.1251 55.9543 36.8302C55.9543 35.5353 55.4903 34.4592 54.5622 33.602C53.6341 32.7266 52.469 32.2889 51.067 32.2889C49.665 32.2889 48.4999 32.7266 47.5718 33.602C46.6635 34.4592 46.2093 35.5444 46.2093 36.8575C46.2093 38.1707 46.6536 39.2559 47.5422 40.1131C48.4506 40.952 49.6156 41.3715 51.0374 41.3715C52.4592 41.3715 53.6341 40.9429 54.5622 40.0857Z" fill="#21E0B2"/>
</svg>
