<svg width="103" height="103" viewBox="0 0 103 103" fill="none" xmlns="http://www.w3.org/2000/svg">
<g clip-path="url(#clip0_152_78)">
<path d="M64.375 77.25H38.625V90.125H30.0417V76.1685C24.3497 74.6956 19.1313 71.7857 14.8865 67.7175C10.6417 63.6493 7.51276 58.5593 5.79944 52.935C4.08611 47.3107 3.84582 41.3406 5.1016 35.5968C6.35737 29.853 9.06713 24.528 12.9712 20.1318C16.8753 15.7357 21.843 12.4157 27.3982 10.4902C32.9534 8.56459 38.91 8.09787 44.6974 9.13472C50.4847 10.1716 55.9088 12.6772 60.4499 16.4117C64.9911 20.1461 68.4972 24.9841 70.6322 30.4623C73.8598 29.8447 77.1807 29.9079 80.3824 30.6477C83.5841 31.3875 86.5961 32.7877 89.2254 34.7587C91.8548 36.7296 94.0438 39.2278 95.652 42.0934C97.2603 44.959 98.2525 48.1289 98.5652 51.4C98.8779 54.6712 98.504 57.9716 97.4677 61.09C96.4314 64.2084 94.7553 67.076 92.5469 69.5093C90.3384 71.9426 87.6462 73.888 84.6426 75.221C81.6391 76.5539 78.3902 77.245 75.1042 77.25L72.9583 77.2543V90.1293H64.375V77.2543V77.25ZM47.2083 85.8333H55.7917V98.7083H47.2083V85.8333Z" fill="#39FFC2"/>
</g>
<defs>
<clipPath id="clip0_152_78">
<rect width="103" height="103" fill="white"/>
</clipPath>
</defs>
</svg>
