<svg width="23" height="24" viewBox="0 0 23 24" fill="none" xmlns="http://www.w3.org/2000/svg">
<g clip-path="url(#clip0_152_90)">
<path d="M14.375 17.395H8.625V20.27H6.70834V17.1535C5.43731 16.8246 4.27204 16.1748 3.32417 15.2664C2.37631 14.3579 1.67761 13.2213 1.29502 11.9654C0.912436 10.7095 0.858779 9.37638 1.1392 8.09378C1.41961 6.81118 2.0247 5.62209 2.89649 4.64042C3.76828 3.65876 4.87756 2.91742 6.11805 2.48744C7.35853 2.05745 8.68865 1.95323 9.98097 2.18476C11.2733 2.41629 12.4845 2.97581 13.4985 3.80971C14.5126 4.64361 15.2955 5.72395 15.7723 6.94722C16.493 6.80932 17.2345 6.82343 17.9495 6.98864C18.6644 7.15384 19.337 7.46651 19.9241 7.90661C20.5113 8.34672 21.0001 8.90458 21.3592 9.54447C21.7183 10.1844 21.9399 10.8922 22.0097 11.6227C22.0795 12.3531 21.9961 13.0901 21.7646 13.7864C21.5332 14.4828 21.159 15.1231 20.6658 15.6665C20.1727 16.2098 19.5715 16.6442 18.9008 16.9419C18.2301 17.2395 17.5046 17.3939 16.7708 17.395L16.2917 17.3959V20.2709H14.375V17.3959V17.395ZM10.5417 19.3116H12.4583V22.1866H10.5417V19.3116Z" fill="#39FFC2"/>
</g>
<defs>
<clipPath id="clip0_152_90">
<rect width="23" height="23" fill="white" transform="translate(0 0.144958)"/>
</clipPath>
</defs>
</svg>
