<svg width="26" height="26" viewBox="0 0 26 26" fill="none" xmlns="http://www.w3.org/2000/svg">
<g clip-path="url(#clip0_152_72)">
<path d="M5.41665 23.8333C5.12933 23.8333 4.85378 23.7192 4.65061 23.516C4.44745 23.3129 4.33331 23.0373 4.33331 22.75V3.25001C4.33331 2.96269 4.44745 2.68714 4.65061 2.48397C4.85378 2.28081 5.12933 2.16667 5.41665 2.16667H20.5833C20.8706 2.16667 21.1462 2.28081 21.3493 2.48397C21.5525 2.68714 21.6666 2.96269 21.6666 3.25001V6.5H19.5V4.33334H6.49998V21.6667H19.5V19.5H21.6666V22.75C21.6666 23.0373 21.5525 23.3129 21.3493 23.516C21.1462 23.7192 20.8706 23.8333 20.5833 23.8333H5.41665ZM19.5 17.3333V14.0833H11.9166V11.9167H19.5V8.66667L24.9166 13L19.5 17.3333Z" fill="#4DBF96"/>
</g>
<defs>
<clipPath id="clip0_152_72">
<rect width="26" height="26" fill="white"/>
</clipPath>
</defs>
</svg>
