<svg width="30" height="30" viewBox="0 0 30 30" fill="none" xmlns="http://www.w3.org/2000/svg">
<g clip-path="url(#clip0_152_105)">
<path d="M23.75 26.25H6.25C5.91848 26.25 5.60054 26.1183 5.36612 25.8839C5.1317 25.6495 5 25.3315 5 25V13.75H1.25L14.1587 2.01501C14.3889 1.8056 14.6889 1.68956 15 1.68956C15.3111 1.68956 15.6111 1.8056 15.8413 2.01501L28.75 13.75H25V25C25 25.3315 24.8683 25.6495 24.6339 25.8839C24.3995 26.1183 24.0815 26.25 23.75 26.25ZM7.5 23.75H22.5V11.4463L15 4.62876L7.5 11.4463V23.75ZM15 18.75C14.1712 18.75 13.3763 18.4208 12.7903 17.8347C12.2042 17.2487 11.875 16.4538 11.875 15.625C11.875 14.7962 12.2042 14.0013 12.7903 13.4153C13.3763 12.8292 14.1712 12.5 15 12.5C15.8288 12.5 16.6237 12.8292 17.2097 13.4153C17.7958 14.0013 18.125 14.7962 18.125 15.625C18.125 16.4538 17.7958 17.2487 17.2097 17.8347C16.6237 18.4208 15.8288 18.75 15 18.75Z" fill="#4DBF96"/>
</g>
<defs>
<clipPath id="clip0_152_105">
<rect width="30" height="30" fill="white"/>
</clipPath>
</defs>
</svg>
