<svg width="64" height="64" viewBox="0 0 64 64" fill="none" xmlns="http://www.w3.org/2000/svg">
<path opacity="0.64" fill-rule="evenodd" clip-rule="evenodd" d="M29.3333 26.5076H2.66668C1.06668 26.5076 9.02017e-06 25.4473 9.02017e-06 23.8569C9.02017e-06 23.3267 0 23.8569 0 22.5315C1.06667 18.5553 8.36268 0 32.096 0C57.9627 0 64 23.0616 64 23.3267C64 24.1219 64 24.9172 63.4667 25.4473C62.9333 26.2426 62.1333 26.5076 61.3333 26.5076H34.6667V35.8408C35.1994 35.0303 35.7924 34.2641 36.4455 33.5423C37.4319 32.4875 38.5792 31.5908 39.8873 30.8523C40.8762 30.2745 41.9782 29.887 43.1931 29.6898C44.4399 29.4606 45.6877 29.4063 46.9363 29.527C48.2168 29.6157 49.4182 29.8798 50.5406 30.3192C51.6948 30.7267 52.6738 31.2941 53.4777 32.0215C53.992 32.4641 54.5233 33.0816 55.0715 33.874C55.6517 34.6662 56.072 35.4751 56.3324 36.3008C56.5928 37.1265 56.597 37.9058 56.3449 38.6387C56.1246 39.3397 55.4871 39.8202 54.4325 40.0802C53.9852 40.2098 53.5853 40.2437 53.233 40.1819C52.8805 40.0884 52.5598 39.9469 52.2707 39.7576C51.9816 39.5364 51.7082 39.2834 51.4507 38.9984C51.1932 38.7135 50.9517 38.4285 50.7261 38.1434C49.9533 37.225 49.054 36.6094 48.0283 36.2967C47.0025 35.9522 45.978 35.878 44.9551 36.0742C43.9639 36.2385 43.0221 36.657 42.1297 37.3297C41.2691 37.9704 40.6015 38.8009 40.1269 39.8213C39.6207 40.9055 39.211 42.1005 38.898 43.4063C38.6167 44.6802 38.4637 45.9852 38.4388 47.3213C38.4137 48.6257 38.5324 49.8974 38.795 51.1366C39.0896 52.3756 39.5754 53.4705 40.2525 54.4213C40.7685 55.182 41.3958 55.799 42.1344 56.2722C42.9049 56.7453 43.7226 57.075 44.5877 57.2614C45.4527 57.4477 46.3168 57.475 47.1801 57.3432C48.0754 57.2112 48.9379 56.9204 49.7675 56.4707C50.0228 56.3422 50.2939 56.1658 50.5807 55.9416L51.5366 55.1732C51.8553 54.917 52.174 54.6768 52.4928 54.4524C52.8436 54.2279 53.2108 54.0669 53.5943 53.9695C54.1693 53.7756 54.7933 53.7882 55.4665 54.0074C56.1717 54.2263 56.7021 54.6848 57.0578 55.3827C57.4787 56.303 57.4996 57.2095 57.1203 58.1021C56.7409 58.963 56.1371 59.7614 55.309 60.4974C54.4809 61.2333 53.5243 61.8745 52.4392 62.421C51.3861 62.9673 50.3801 63.3543 49.4213 63.582C48.3665 63.8102 47.247 63.9115 46.0629 63.8859C44.9109 63.892 43.7421 63.755 42.5566 63.4749C41.4033 63.2265 40.2653 62.8507 39.1426 62.3477C38.0517 61.8126 37.0403 61.1658 36.1082 60.4073C34.9834 59.4907 34.0975 58.398 33.4508 57.129C32.8359 55.828 32.3805 54.4467 32.0848 52.985C31.789 51.5233 31.6212 50.0609 31.5814 48.5979C31.579 48.1331 31.5812 47.6775 31.5881 47.2311C30.9099 47.8219 30.0872 48.3062 29.12 48.6839C29.056 48.7475 28.96 48.7952 28.832 48.827C28.736 48.827 28.656 48.8429 28.592 48.8748L33.008 57.7018L33.44 58.4652C33.504 58.5925 33.584 58.7356 33.68 58.8946C33.776 59.0537 33.856 59.2127 33.92 59.3718C34.016 59.5308 34.096 59.7058 34.16 59.8966C34.256 60.0875 34.352 60.2624 34.448 60.4215C34.544 60.8668 34.624 61.2326 34.688 61.5189C34.72 61.837 34.688 62.1392 34.592 62.4254C34.528 62.6163 34.432 62.7754 34.304 62.9026C34.208 63.0298 34.08 63.1571 33.92 63.2843C33.632 63.4751 33.28 63.6501 32.864 63.8092C32.608 63.8728 32.352 63.9205 32.096 63.9523C31.872 64.0159 31.632 64.0159 31.376 63.9523C30.864 63.9205 30.416 63.7296 30.032 63.3797C29.488 62.9344 29.04 62.4414 28.688 61.9006C28.528 61.6461 28.352 61.3598 28.16 61.0418C27.968 60.7237 27.792 60.3897 27.632 60.0398L22.304 49.9722C22.048 49.9722 21.792 49.9881 21.536 50.0199C21.28 50.0199 21.024 50.0358 20.768 50.0676C20.096 50.1312 19.456 50.1471 18.848 50.1153C18.272 50.0835 17.664 50.0835 17.024 50.1153H16.112V58.7515C16.112 59.006 16.096 59.2445 16.064 59.4672V60.1829C16.064 60.342 16.048 60.5487 16.016 60.8032C16.016 61.0577 16 61.2962 15.968 61.5189C15.904 61.8688 15.76 62.2346 15.536 62.6163C15.312 62.9662 15.008 63.2684 14.624 63.5229C13.952 63.9364 13.136 64.0477 12.176 63.8569C11.76 63.7614 11.36 63.6024 10.976 63.3797C10.848 63.2843 10.736 63.173 10.64 63.0457C10.544 62.8867 10.464 62.7276 10.4 62.5686L10.208 62.0915C10.176 61.9006 10.128 61.7256 10.064 61.5666C9.96801 61.2485 9.92001 60.9463 9.92001 60.66V32.9861C9.95201 32.7634 9.98401 32.5726 10.016 32.4135C10.048 32.0636 10.16 31.7137 10.352 31.3638C10.448 30.9821 10.608 30.7117 10.832 30.5527C11.024 30.3618 11.312 30.2028 11.696 30.0756C12.112 29.9165 12.704 29.8529 13.472 29.8847C14.912 29.9165 16.336 29.9324 17.744 29.9324C19.152 29.9324 20.56 29.9642 21.968 30.0278C22.896 30.0915 23.872 30.2028 24.896 30.3618C25.952 30.4891 26.928 30.7276 27.824 31.0775C28.3703 31.2887 28.8734 31.4999 29.3333 31.7111V26.5076ZM17.6724 21.2061H6.13334C8.2798 15.7534 13.8391 5.21205 26.8173 3.0457C23.1264 7.1626 19.0185 13.4806 17.6724 21.2061ZM20.3829 21.2061H30.6667V2.88556C26.9866 6.39446 21.9634 12.9339 20.3829 21.2061ZM33.3333 2.88557V21.2061H43.6171C42.0366 12.9339 37.0134 6.39447 33.3333 2.88557ZM57.6 21.2061H46.3276C44.9918 13.5396 40.9362 7.25913 37.2673 3.14035C50.0474 5.50265 55.4832 15.8288 57.6 21.2061ZM24.32 44.2465C23.808 44.4374 23.264 44.5328 22.688 44.5328H16.112V39.7614C16.144 38.3936 16.144 37.0577 16.112 35.7535H19.232C20.352 35.7535 21.376 35.7853 22.304 35.8489C23.872 35.9125 25.136 36.342 26.096 37.1372C27.056 37.9006 27.472 39.0775 27.344 40.668C27.312 41.2088 27.152 41.7177 26.864 42.1948C26.576 42.6402 26.208 43.0378 25.76 43.3877C25.344 43.7376 24.864 44.0239 24.32 44.2465Z" fill="#00FFE0"/>
</svg>
