<svg width="24" height="25" viewBox="0 0 24 25" fill="none" xmlns="http://www.w3.org/2000/svg">
<g clip-path="url(#clip0_152_59)">
<path d="M12 18.63L16.243 14.388C17.082 13.5488 17.6534 12.4797 17.8848 11.3159C18.1162 10.152 17.9973 8.94565 17.5432 7.84936C17.089 6.75306 16.32 5.81605 15.3333 5.1568C14.3466 4.49756 13.1866 4.14569 12 4.14569C10.8134 4.14569 9.65336 4.49756 8.66669 5.1568C7.68002 5.81605 6.91098 6.75306 6.45682 7.84936C6.00267 8.94565 5.88379 10.152 6.11522 11.3159C6.34665 12.4797 6.91799 13.5488 7.757 14.388L12 18.63ZM17.657 15.802L12 21.459L6.343 15.802C5.22422 14.6831 4.46234 13.2577 4.15369 11.7058C3.84504 10.154 4.00349 8.54549 4.60901 7.0837C5.21452 5.62192 6.2399 4.37251 7.55548 3.49348C8.87107 2.61444 10.4178 2.14526 12 2.14526C13.5822 2.14526 15.1289 2.61444 16.4445 3.49348C17.7601 4.37251 18.7855 5.62192 19.391 7.0837C19.9965 8.54549 20.155 10.154 19.8463 11.7058C19.5377 13.2577 18.7758 14.6831 17.657 15.802V15.802ZM5 22.145H19V24.145H5V22.145Z" fill="#35EFB6"/>
</g>
<defs>
<clipPath id="clip0_152_59">
<rect width="24" height="24" fill="white" transform="translate(0 0.144958)"/>
</clipPath>
</defs>
</svg>
