<svg width="24" height="25" viewBox="0 0 24 25" fill="none" xmlns="http://www.w3.org/2000/svg">
<g clip-path="url(#clip0_152_111)">
<path d="M12 22.145C6.477 22.145 2 17.668 2 12.145C2 6.62196 6.477 2.14496 12 2.14496C17.523 2.14496 22 6.62196 22 12.145C22 17.668 17.523 22.145 12 22.145ZM12 20.145C14.1217 20.145 16.1566 19.3021 17.6569 17.8018C19.1571 16.3015 20 14.2667 20 12.145C20 10.0232 19.1571 7.9884 17.6569 6.4881C16.1566 4.98781 14.1217 4.14496 12 4.14496C9.87827 4.14496 7.84344 4.98781 6.34315 6.4881C4.84285 7.9884 4 10.0232 4 12.145C4 14.2667 4.84285 16.3015 6.34315 17.8018C7.84344 19.3021 9.87827 20.145 12 20.145V20.145ZM8 13.145H16C16 14.2058 15.5786 15.2232 14.8284 15.9734C14.0783 16.7235 13.0609 17.145 12 17.145C10.9391 17.145 9.92172 16.7235 9.17157 15.9734C8.42143 15.2232 8 14.2058 8 13.145V13.145ZM8 11.145C7.60218 11.145 7.22064 10.9869 6.93934 10.7056C6.65804 10.4243 6.5 10.0428 6.5 9.64496C6.5 9.24713 6.65804 8.8656 6.93934 8.5843C7.22064 8.30299 7.60218 8.14496 8 8.14496C8.39782 8.14496 8.77936 8.30299 9.06066 8.5843C9.34196 8.8656 9.5 9.24713 9.5 9.64496C9.5 10.0428 9.34196 10.4243 9.06066 10.7056C8.77936 10.9869 8.39782 11.145 8 11.145ZM16 11.145C15.6022 11.145 15.2206 10.9869 14.9393 10.7056C14.658 10.4243 14.5 10.0428 14.5 9.64496C14.5 9.24713 14.658 8.8656 14.9393 8.5843C15.2206 8.30299 15.6022 8.14496 16 8.14496C16.3978 8.14496 16.7794 8.30299 17.0607 8.5843C17.342 8.8656 17.5 9.24713 17.5 9.64496C17.5 10.0428 17.342 10.4243 17.0607 10.7056C16.7794 10.9869 16.3978 11.145 16 11.145Z" fill="#35EFB6"/>
</g>
<defs>
<clipPath id="clip0_152_111">
<rect width="24" height="24" fill="white" transform="translate(0 0.144958)"/>
</clipPath>
</defs>
</svg>
